<svg viewBox="0 0 20.999 21.94" overflow="visible" id="svg-1544027779_1366"><g><path d="M 10.525 7.498 C 8.693 7.498 7.209 9.049 7.209 10.962 C 7.209 12.875 8.693 14.426 10.525 14.426 C 12.356 14.426 13.84 12.875 13.84 10.962 C 13.84 9.049 12.356 7.498 10.525 7.498 Z" fill="var(--token-15d78aae-8d73-46f2-97b1-5b8fd9a65b42, rgb(243, 241, 240)) /* {&quot;name&quot;:&quot;neutral-20&quot;} */"></path><path d="M 18.437 21.94 L 10.315 21.94 C 4.601 21.837 0 16.964 0 10.97 C 0 4.911 4.702 0 10.501 0 C 16.207 0 20.849 4.753 20.999 10.676 L 20.981 19.583 C 20.829 20.912 19.75 21.94 18.437 21.94 Z M 4.914 10.967 C 4.914 11.716 4.431 12.348 3.773 12.541 C 4.461 15.778 7.225 18.198 10.53 18.198 C 11.734 18.198 12.865 17.877 13.851 17.313 L 13.851 18.149 L 17.452 18.149 L 17.452 11.267 C 17.454 11.205 17.454 11.132 17.453 11.063 C 17.453 11.03 17.452 10.997 17.452 10.967 C 17.452 6.974 14.353 3.736 10.53 3.736 C 7.225 3.736 4.461 6.157 3.773 9.393 C 4.431 9.586 4.914 10.218 4.914 10.967 Z M 3.316 12.119 C 3.928 12.119 4.424 11.601 4.424 10.962 C 4.424 10.323 3.928 9.805 3.316 9.805 C 2.704 9.805 2.208 10.323 2.208 10.962 C 2.208 11.601 2.704 12.119 3.316 12.119 Z" fill="var(--token-15d78aae-8d73-46f2-97b1-5b8fd9a65b42, rgb(243, 241, 240)) /* {&quot;name&quot;:&quot;neutral-20&quot;} */"></path></g></svg>